<?xml version="1.0"?>
<svg xmlns="http://www.w3.org/2000/svg" viewBox="0 0 64 64" width="100" height="100"><g id="outline"><path d="M40.5,36.1,39.615,37.9a6.153,6.153,0,0,0,2.529.548A5.254,5.254,0,0,0,44.51,37.9l-.895-1.79A3.859,3.859,0,0,1,40.5,36.1Z"/><path d="M47.384,22.947l-.638-1.9c-.15.051-3.684,1.271-3.684,4.949h2A3.438,3.438,0,0,1,47.384,22.947Z"/><path d="M52,61.08c.081-1.023,2-25.086,2-29.08a17.089,17.089,0,0,1,.955-4.961c1.074-3.588,2.186-7.3-2.179-12.669-4.047-4.981-11-12-11.066-12.074A1,1,0,0,0,41,2H10a1,1,0,0,0-.9,1.436c.083.169,2.105,4.246,10.2,12.274,1.652,1.639,3.227,3.105,4.618,4.4,4.456,4.147,7.4,6.886,7.092,9.787-1.064,10.009,1.879,30.387,2.005,31.25A1,1,0,0,0,34,62H51A1,1,0,0,0,52,61.08ZM31.648,4,44.126,16.477A3.728,3.728,0,0,0,42.062,20h2a1.884,1.884,0,0,1,2-2,4.352,4.352,0,0,1,3.3,1.152,3.469,3.469,0,0,1,.889,2.406c0,1.353-.652,2.442-1.192,2.442a2.9,2.9,0,0,0-3,3c0,2.708-2.8,3-4,3s-4-.292-4-3a3.973,3.973,0,0,1,1.172-2.828,1,1,0,0,0,0-1.415L20.448,4Zm15.1,32.946A4.6,4.6,0,0,0,46,40V60H39V42.819c1.14,1.533,2.062,3.132,2.062,4.181h2c0-3.217-4.566-7.952-5.357-8.747A3.6,3.6,0,0,1,37,36a2,2,0,0,1,2.532-1.929,9.292,9.292,0,0,0,4.936,0A2,2,0,0,1,47,36,1.256,1.256,0,0,1,46.752,36.946ZM48,60V40c0-1.34.193-1.621.4-1.918A3.156,3.156,0,0,0,49,36a4,4,0,0,0-5.063-3.857,7.421,7.421,0,0,1-3.874,0A4,4,0,0,0,35,36a5.744,5.744,0,0,0,1.168,3.555A3.78,3.78,0,0,1,37,42V60H34.87c-.554-4.032-2.792-21.269-1.876-29.895.414-3.895-2.821-6.9-7.718-11.46-1.38-1.284-2.942-2.738-4.572-4.355A71.6,71.6,0,0,1,11.784,4h5.833L37.171,23.523A5.956,5.956,0,0,0,36.062,27c0,3.038,2.356,5,6,5s6-1.962,6-5a.91.91,0,0,1,1-1c1.79,0,3.192-1.951,3.192-4.442A5.458,5.458,0,0,0,50.82,17.78a6.073,6.073,0,0,0-4.334-1.771L34.477,4h6.1c1.357,1.381,7.127,7.3,10.643,11.63,3.7,4.551,2.825,7.463,1.815,10.835A18.664,18.664,0,0,0,52,32c0,3.482-1.563,23.45-1.924,28Z"/><rect x="38" y="16" width="2" height="2"/><rect x="41" y="49" width="2" height="2"/></g></svg>
